<?xml version="1.0" standalone="no"?>
<!DOCTYPE svg PUBLIC "-//W3C//DTD SVG 20010904//EN"
 "http://www.w3.org/TR/2001/REC-SVG-20010904/DTD/svg10.dtd">
<svg version="1.0" xmlns="http://www.w3.org/2000/svg"
 width="513.000000pt" height="513.000000pt" viewBox="0 0 513.000000 513.000000"
 preserveAspectRatio="xMidYMid meet">
<metadata>
Created by potrace 1.14, written by Peter Selinger 2001-2017
</metadata>
<g transform="translate(0.000000,513.000000) scale(0.100000,-0.100000)"
fill="#000000" stroke="none">
<path d="M2428 5066 c-1 -2 -41 -6 -88 -10 -79 -5 -102 -8 -170 -21 -14 -3
-43 -8 -65 -11 -22 -3 -98 -21 -170 -39 -695 -177 -1298 -674 -1614 -1327
-110 -229 -190 -483 -217 -693 -3 -22 -7 -45 -9 -52 -19 -57 -26 -449 -12
-593 85 -827 579 -1564 1311 -1954 171 -91 436 -194 568 -220 13 -2 52 -11 89
-20 230 -55 625 -68 869 -31 256 40 467 102 690 204 202 92 437 243 595 381
82 72 233 228 295 305 36 44 67 82 70 85 15 15 114 168 162 250 181 311 288
646 325 1018 15 147 8 448 -12 582 -28 177 -100 456 -145 555 -5 11 -21 49
-36 85 -146 340 -401 684 -679 915 -33 28 -62 52 -65 55 -15 17 -188 135 -266
183 -239 144 -559 267 -814 311 -19 3 -46 8 -59 11 -13 2 -49 7 -80 11 -31 3
-65 8 -76 11 -24 5 -392 13 -397 9z"/>
</g>
</svg>
