<svg xmlns="http://www.w3.org/2000/svg" viewBox="0 0 1375.18 896.82"><defs><style>.cls-1{fill:#fff;}</style></defs><g id="Layer_2" data-name="Layer 2"><g id="Layer_1-2" data-name="Layer 1"><path class="cls-1" d="M559.45,512.55c2.81,0,5.6-.06,8.39-.15.84,0,1.67-.06,2.51-.09q3.57-.15,7.11-.4l1.31-.08c2.84-.21,5.67-.48,8.48-.78l1.56-.18c2.77-.32,5.53-.67,8.28-1.07l.19,0C686.17,496.62,760.17,437.83,794.74,358c101.84-7.51,172.46-68.48,194.74-165.77,0,0-76.86,18.74-142,0,128.77-25,203-97.39,224.5-192.21H943.31C832.77,0,773.34,5.94,727,62.32A255.27,255.27,0,0,0,559.45,0C417.91,0,303.17,114.74,303.17,256.28S417.91,512.55,559.45,512.55Zm0-333.16a77,77,0,0,1,73.6,99.23l-.38,1.21a76.81,76.81,0,0,1-73,53.33h-.21a76.89,76.89,0,0,1,0-153.77Z"/><path class="cls-1" d="M343.4,639.05c-22.72,0-39.74,9.65-54.35,26.84l-1.27-7.23a16.77,16.77,0,0,0-16.52-13.89h-32.2V814.52a8.38,8.38,0,0,0,8.37,8.39h44.64V706.28a16.26,16.26,0,0,1,2.89-9.45Q308.4,678,323,678c13.88,0,16.77,10,16.77,23.82V814.52a8.39,8.39,0,0,0,8.39,8.39h44.62V692.74C392.72,657.51,373.26,639.05,343.4,639.05Z"/><path class="cls-1" d="M104.68,584.66C34.83,584.66,0,636.2,0,706.49c0,71.1,34.3,122.17,104.68,122.17,69.88,0,105-51,105-122.12C209.7,635,176,584.66,104.68,584.66Zm0,203.69v0c-40,0-47-41.82-47-81.86,0-40.34,6.61-81.53,47-81.53S152,665.85,152,706.49C152,747.38,145.47,788.35,104.68,788.35Z"/><path class="cls-1" d="M492.55,786.38h0a18.24,18.24,0,0,1-2.86.29q-9.07,0-9.06-11.06V568.25l-45.53,4.91a8.39,8.39,0,0,0-7.49,8.34V777.66c0,33.69,19,51,49,51a82.63,82.63,0,0,0,32.21-6l-8.68-31.37A6.71,6.71,0,0,0,492.55,786.38Z"/><path class="cls-1" d="M622.85,651.17,589.5,789,559,651.33a8.39,8.39,0,0,0-8.19-6.58H501.18L552,811a16.78,16.78,0,0,0,16,11.88h5.69c-10.86,26.15-27.23,33.27-57.37,37.25l4.53,29.52a8.35,8.35,0,0,0,9,7.11c47-4.71,78.1-27.16,92.53-73.54l56.7-178.5H631A8.38,8.38,0,0,0,622.85,651.17Z"/><path class="cls-1" d="M1296.31,705.14c-7.44-3.23-12.34-6.14-12.72-13.77-.35-6.92,5.18-12.9,12.06-13.8q23.67-3.09,46.95,9.42a8.26,8.26,0,0,0,10.73-2.94l15.12-23.19c-18.38-15-41.91-21.81-65.43-21.81-37.35,0-72.81,18.54-72.81,54.35,0,49,54.75,54.33,77.17,63.58,8.73,3.61,12.84,7.2,13.08,16.12a16.61,16.61,0,0,1-13.82,16.6q-28.29,4.65-53.67-12.36a8.24,8.24,0,0,0-10.67,1.53l-20.8,23.23c19.79,18.34,47.71,26.56,74.5,26.56,40.25,0,79.18-18.9,79.18-58.71C1375.16,720.56,1327.89,718.88,1296.31,705.14Z"/><path class="cls-1" d="M701.43,598.79V822.91h46.63a8.39,8.39,0,0,0,8.39-8.39V730.66h51A12.57,12.57,0,0,0,820,719.43l3-28H756.48V629.66h67a12.57,12.57,0,0,0,12.45-10.77L840,590.4H709.82A8.39,8.39,0,0,0,701.43,598.79Z"/><path class="cls-1" d="M1123.79,645.76q-13.24,6.72-24.66,20.13l-1.26-7.25a16.78,16.78,0,0,0-16.53-13.89h-32.2V814.52a8.39,8.39,0,0,0,8.39,8.39h44.62V706.28a16.26,16.26,0,0,1,2.89-9.45Q1118.48,678,1133,678c13.88,0,16.78,10,16.78,23.82V814.52a8.39,8.39,0,0,0,8.39,8.39h44.62V692.73C1202.81,638.85,1155.68,629.66,1123.79,645.76Z"/><path class="cls-1" d="M1009.53,763.19V644.75H977.31a16.78,16.78,0,0,0-16.45,13.48l-.32,1.62c-11.19-13.86-21.66-20.8-39.78-20.8-48.88,0-74.15,43.76-74.15,94.28,0,50.34,18.56,95.28,68.78,95.28,21.67,0,36.16-11.18,47.84-27.17,4.92,9.29,12.38,15.48,21.22,19.78a23.54,23.54,0,0,0,31.4-11c.21-.45.41-.91.6-1.37l7.45-18.45C1012,784.36,1009.53,776.87,1009.53,763.19Zm-53,2.09a17.17,17.17,0,0,1-3.13,9.69c-6.81,9.82-12.72,14.73-23.22,14.73-25.51,0-28.53-30.43-28.53-56s5.31-56,30.87-56c7.88,0,12.46,2.33,19.47,9.72a16.71,16.71,0,0,1,4.54,11.46Z"/></g></g></svg>